<?xml version="1.0" encoding="UTF-8"?>
<svg id="Ebene_1" xmlns="http://www.w3.org/2000/svg" version="1.1" viewBox="0 0 283.5 50.4">
  <!-- Generator: Adobe Illustrator 29.3.1, SVG Export Plug-In . SVG Version: 2.1.0 Build 151)  -->
  <g>
    <path d="M113.8,0h15.7c5.8,0,14.5,1.7,14.5,11.5s-3.6,9.1-8.9,10h0c6.1.7,10.3,4.8,10.3,10.4,0,11.3-10.2,13-15.8,13h-15.7V0ZM122.8,18.2h3.7c3.8,0,8.5-.8,8.5-5.5s-4.6-5.6-8.7-5.6h-3.5v11.1ZM122.8,37.9h4.2c4.2,0,9.3-1,9.3-6.2s-4.8-6.8-9.3-6.8h-4.2v13Z"/>
    <path d="M164.8,0h10.2l17.6,44.9h-10l-3.9-10.3h-18.2l-3.9,10.3h-9.3L164.8,0ZM169.8,9h-.1l-6.5,18.5h13.1l-6.5-18.5Z"/>
    <path d="M197,0h11.1l17.1,33.6h.1V0h8.6v44.9h-11l-17.2-33.6h-.1v33.6h-8.6V0Z"/>
    <path d="M245.2,0h12.3c13.8,0,25.9,4.6,25.9,22.5s-12.2,22.5-25.9,22.5h-12.3V0ZM254.2,37.9h5c7.5,0,14.8-5.6,14.8-15.4s-7.3-15.4-14.8-15.4h-5v30.8Z"/>
  </g>
  <path d="M98.6,0h-44.1c1.6,2.2,2.3,3.9,2.6,5.4H0v45h59l.3-.2c1.8-1.1,4.1-3,5.9-5.2h33.3V0ZM64.6,8.3c.9,1.2,1.3,2.6,1.3,4.2s-1.2,3.3-2.6,4.8c-1.5,1.6-3.2,3.4-3.2,6.3s1.4,4.4,2.8,6.2c1.5,2,3.1,4,3.1,7.4s-.8,3.3-2,5h-10c2.7-2.5,6.1-6.4,6.1-10.4s-2-7-3.7-9.1c-1.2-1.6-2.2-2.9-2.2-4.5s1.1-3,2.5-4.4c1.4-1.4,2.9-3.1,3.3-5.5h4.7ZM58.2,47.6H2.8V8.3h54.2c-.4,1.4-1.3,2.4-2.4,3.6-1.5,1.6-3.2,3.4-3.2,6.3s1.4,4.4,2.8,6.2c1.5,2,3.1,4,3.1,7.4s-6.1,9.6-10.3,13.2h14.6c-1.1,1.1-2.2,2-3.3,2.6ZM95.8,42.1h-28.5c.9-1.6,1.4-3.3,1.4-5,0-4.4-2-7-3.7-9.1-1.2-1.6-2.2-2.9-2.2-4.5s1.1-3,2.5-4.4c1.6-1.7,3.4-3.6,3.4-6.7s-.8-4.8-2.4-6.5l-.4-.5h-6c-.1-.9-.4-1.8-.7-2.6h36.6v39.3Z"/>
</svg>